<?xml version="1.0" encoding="utf-8"?>
<!-- Generator: Adobe Illustrator 25.0.1, SVG Export Plug-In . SVG Version: 6.00 Build 0)  -->
<svg version="1.1" id="Layer_1" xmlns="http://www.w3.org/2000/svg" xmlns:xlink="http://www.w3.org/1999/xlink" x="0px" y="0px"
	 viewBox="0 0 16 16" style="enable-background:new 0 0 16 16;" xml:space="preserve">
<style type="text/css">
	.st0{fill:#FFFFFF;}
</style>
<g>
	<circle cx="8" cy="8" r="7.7"/>
	<g>
		<path class="st0" d="M10.3,6.3C10.2,5.8,10,5.4,9.8,5.1C9.5,4.7,8.9,4.5,8.2,4.5C7.5,4.5,7,4.7,6.5,5.2C6,5.8,5.7,6.7,5.7,8
			c0,1,0.2,1.8,0.6,2.4c0.4,0.7,1.1,1.1,1.9,1.1c0.6,0,1.1-0.2,1.4-0.5c0.4-0.3,0.6-0.8,0.8-1.4h2.1c-0.2,1.2-0.7,2.1-1.4,2.7
			c-0.8,0.7-1.7,1.1-2.9,1.1c-1.4,0-2.5-0.5-3.3-1.4C4,11,3.5,9.7,3.5,8c0-1.7,0.4-3,1.3-4c0.8-0.9,1.9-1.4,3.3-1.4
			c1.4,0,2.4,0.4,3.2,1.2c0.6,0.7,1,1.5,1.1,2.4H10.3z"/>
	</g>
</g>
</svg>
